<mxfile host="app.diagrams.net" modified="2022-07-25T13:07:52.950Z" agent="5.0 (Macintosh; Intel Mac OS X 10_15_7) AppleWebKit/537.36 (KHTML, like Gecko) Chrome/103.0.0.0 Safari/537.36" etag="uoggkRi8iJE8sZR-oQd4" version="16.1.4" type="github">
  <diagram id="bVveGkJN7_jkSSGQISme" name="Page-1">
    <mxGraphModel dx="946" dy="537" grid="1" gridSize="10" guides="1" tooltips="1" connect="1" arrows="1" fold="1" page="1" pageScale="1" pageWidth="827" pageHeight="1169" math="0" shadow="0">
      <root>
        <mxCell id="0" />
        <mxCell id="1" parent="0" />
        <mxCell id="IrFQ-191qk_qcLhcgVKI-10" value="University" style="rounded=0;whiteSpace=wrap;html=1;" parent="1" vertex="1">
          <mxGeometry x="370" y="50" width="120" height="60" as="geometry" />
        </mxCell>
        <mxCell id="IrFQ-191qk_qcLhcgVKI-11" value="Office" style="rounded=0;whiteSpace=wrap;html=1;" parent="1" vertex="1">
          <mxGeometry x="430" y="190" width="120" height="60" as="geometry" />
        </mxCell>
        <mxCell id="IrFQ-191qk_qcLhcgVKI-12" value="Department" style="rounded=0;whiteSpace=wrap;html=1;" parent="1" vertex="1">
          <mxGeometry x="620.51" y="190" width="120" height="60" as="geometry" />
        </mxCell>
        <mxCell id="IrFQ-191qk_qcLhcgVKI-13" value="Public Servant" style="rounded=0;whiteSpace=wrap;html=1;" parent="1" vertex="1">
          <mxGeometry x="350" y="291.1" width="120" height="60" as="geometry" />
        </mxCell>
        <mxCell id="IrFQ-191qk_qcLhcgVKI-14" value="Professor" style="rounded=0;whiteSpace=wrap;html=1;" parent="1" vertex="1">
          <mxGeometry x="150.00000000000006" y="290" width="120" height="60" as="geometry" />
        </mxCell>
        <mxCell id="IrFQ-191qk_qcLhcgVKI-26" value="" style="endArrow=none;html=1;rounded=0;exitX=1;exitY=0.5;exitDx=0;exitDy=0;" parent="1" source="IrFQ-191qk_qcLhcgVKI-14" target="IrFQ-191qk_qcLhcgVKI-13" edge="1">
          <mxGeometry width="50" height="50" relative="1" as="geometry">
            <mxPoint x="420" y="420" as="sourcePoint" />
            <mxPoint x="490" y="420" as="targetPoint" />
            <Array as="points" />
          </mxGeometry>
        </mxCell>
        <mxCell id="IrFQ-191qk_qcLhcgVKI-29" value="" style="html=1;shadow=0;dashed=0;align=center;verticalAlign=middle;shape=mxgraph.arrows2.arrow;dy=1;dx=7.72;notch=0;rotation=-90;" parent="1" vertex="1">
          <mxGeometry x="280" y="278.98" width="70" height="12.12" as="geometry" />
        </mxCell>
        <mxCell id="IrFQ-191qk_qcLhcgVKI-38" value="Classroom" style="html=1;" parent="1" vertex="1">
          <mxGeometry x="80" y="190" width="110" height="60" as="geometry" />
        </mxCell>
        <mxCell id="IrFQ-191qk_qcLhcgVKI-39" value="Employee" style="html=1;" parent="1" vertex="1">
          <mxGeometry x="260" y="190" width="110" height="60" as="geometry" />
        </mxCell>
        <mxCell id="IrFQ-191qk_qcLhcgVKI-40" value="" style="endArrow=diamondThin;endFill=0;endSize=24;html=1;rounded=0;" parent="1" edge="1">
          <mxGeometry width="160" relative="1" as="geometry">
            <mxPoint x="430" y="170" as="sourcePoint" />
            <mxPoint x="429.92" y="109.75" as="targetPoint" />
          </mxGeometry>
        </mxCell>
        <mxCell id="IrFQ-191qk_qcLhcgVKI-41" value="" style="endArrow=none;html=1;rounded=0;" parent="1" edge="1">
          <mxGeometry width="50" height="50" relative="1" as="geometry">
            <mxPoint x="130" y="170" as="sourcePoint" />
            <mxPoint x="680" y="170" as="targetPoint" />
          </mxGeometry>
        </mxCell>
        <mxCell id="IrFQ-191qk_qcLhcgVKI-42" value="" style="endArrow=none;html=1;rounded=0;" parent="1" edge="1">
          <mxGeometry width="50" height="50" relative="1" as="geometry">
            <mxPoint x="130" y="190" as="sourcePoint" />
            <mxPoint x="130" y="170" as="targetPoint" />
            <Array as="points">
              <mxPoint x="130" y="180" />
              <mxPoint x="130" y="170" />
            </Array>
          </mxGeometry>
        </mxCell>
        <mxCell id="IrFQ-191qk_qcLhcgVKI-43" value="" style="endArrow=none;html=1;rounded=0;" parent="1" edge="1">
          <mxGeometry width="50" height="50" relative="1" as="geometry">
            <mxPoint x="309.8" y="190" as="sourcePoint" />
            <mxPoint x="309.8" y="170" as="targetPoint" />
            <Array as="points">
              <mxPoint x="309.8" y="180" />
              <mxPoint x="309.8" y="170" />
            </Array>
          </mxGeometry>
        </mxCell>
        <mxCell id="IrFQ-191qk_qcLhcgVKI-44" value="" style="endArrow=none;html=1;rounded=0;" parent="1" edge="1">
          <mxGeometry width="50" height="50" relative="1" as="geometry">
            <mxPoint x="489.8" y="190" as="sourcePoint" />
            <mxPoint x="489.8" y="170" as="targetPoint" />
            <Array as="points">
              <mxPoint x="489.8" y="180" />
              <mxPoint x="489.8" y="170" />
            </Array>
          </mxGeometry>
        </mxCell>
        <mxCell id="IrFQ-191qk_qcLhcgVKI-45" value="" style="endArrow=none;html=1;rounded=0;" parent="1" edge="1">
          <mxGeometry width="50" height="50" relative="1" as="geometry">
            <mxPoint x="680.31" y="190" as="sourcePoint" />
            <mxPoint x="680.31" y="170" as="targetPoint" />
            <Array as="points">
              <mxPoint x="680.31" y="180" />
              <mxPoint x="680.31" y="170" />
            </Array>
          </mxGeometry>
        </mxCell>
        <mxCell id="IrFQ-191qk_qcLhcgVKI-47" value="" style="endArrow=diamondThin;endFill=0;endSize=24;html=1;rounded=0;" parent="1" edge="1">
          <mxGeometry width="160" relative="1" as="geometry">
            <mxPoint x="550" y="220" as="sourcePoint" />
            <mxPoint x="620" y="220" as="targetPoint" />
          </mxGeometry>
        </mxCell>
        <mxCell id="IrFQ-191qk_qcLhcgVKI-48" value="" style="endArrow=none;html=1;rounded=0;" parent="1" edge="1">
          <mxGeometry width="50" height="50" relative="1" as="geometry">
            <mxPoint x="190" y="219.78000000000003" as="sourcePoint" />
            <mxPoint x="260" y="220" as="targetPoint" />
            <Array as="points">
              <mxPoint x="225" y="219.8" />
            </Array>
          </mxGeometry>
        </mxCell>
        <mxCell id="IrFQ-191qk_qcLhcgVKI-50" value="" style="shape=image;html=1;verticalAlign=top;verticalLabelPosition=bottom;labelBackgroundColor=#ffffff;imageAspect=0;aspect=fixed;image=https://cdn0.iconfinder.com/data/icons/phosphor-thin-vol-3/256/number-one-thin-128.png" parent="1" vertex="1">
          <mxGeometry x="190" y="195" width="20" height="20" as="geometry" />
        </mxCell>
        <mxCell id="IrFQ-191qk_qcLhcgVKI-51" value="" style="shape=image;html=1;verticalAlign=top;verticalLabelPosition=bottom;labelBackgroundColor=#ffffff;imageAspect=0;aspect=fixed;image=https://cdn0.iconfinder.com/data/icons/phosphor-thin-vol-3/256/number-one-thin-128.png" parent="1" vertex="1">
          <mxGeometry x="240" y="195" width="20" height="20" as="geometry" />
        </mxCell>
      </root>
    </mxGraphModel>
  </diagram>
</mxfile>
